# xmcd
#
# Track frame offsets: 
#        150
#        32943
#        52011
#        69374
#        105844
#        124099
#        138547
#        168973
#        189609
#
# Disc length: 2727 seconds
#
# Revision: 0
# Processed by: cddbd v1.5.2PL0 Copyright (c) Steve Scherf et al.
# Submitted via: ExactAudioCopy v1.0b3
#
DISCID=7a0aa509
DTITLE=Frogleg - Frogleg
DYEAR=2015
DGENRE=Alternative
TTITLE0=Walls of the Fort
TTITLE1=Valentina
TTITLE2=Through My Eyes
TTITLE3=Carolina Ron
TTITLE4=Oak Tree Branch
TTITLE5=Lucy Hill
TTITLE6=Little Sleep
TTITLE7=Vieques
TTITLE8=Skyline Blues
EXTD=
EXTT0=
EXTT1=
EXTT2=
EXTT3=
EXTT4=
EXTT5=
EXTT6=
EXTT7=
EXTT8=
PLAYORDER=
